<?xml version="1.0" standalone="no"?>
<!DOCTYPE svg PUBLIC "-//W3C//DTD SVG 20010904//EN"
 "http://www.w3.org/TR/2001/REC-SVG-20010904/DTD/svg10.dtd">
<svg version="1.0" xmlns="http://www.w3.org/2000/svg"
 width="16.000000pt" height="16.000000pt" viewBox="0 0 16.000000 16.000000"
 preserveAspectRatio="xMidYMid meet">
<metadata>
Created by potrace 1.11, written by Peter Selinger 2001-2013
</metadata>
<g transform="translate(0.000000,16.000000) scale(0.003200,-0.003200)"
fill="#000000" stroke="none">
<path d="M2661 4888 c-156 -406 -184 -485 -196 -567 -7 -47 -21 -127 -31 -178
l-17 -91 -46 -7 c-77 -11 -144 -48 -225 -125 -95 -90 -157 -182 -190 -282 -21
-63 -26 -95 -26 -180 1 -227 84 -260 223 -89 34 42 67 82 74 89 6 7 40 46 74
87 58 71 62 74 82 60 24 -17 68 -20 95 -6 9 5 31 13 47 18 26 7 30 14 33 48 3
35 -1 44 -30 68 -22 19 -34 24 -36 15 -3 -14 -41 -42 -48 -35 -2 2 8 17 22 32
l26 28 241 -7 c407 -12 457 -17 498 -49 70 -53 289 -145 448 -188 253 -69 263
-71 379 -70 124 1 162 13 214 68 54 57 73 117 73 238 0 105 -1 113 -33 174
-76 146 -124 194 -257 257 -137 65 -262 94 -406 94 -119 0 -119 0 -136 28 -9
15 -52 64 -95 108 -121 127 -153 217 -153 437 l0 137 -280 0 -280 0 -44 -112z
m-116 -1202 c8 -24 6 -31 -14 -47 -29 -24 -36 -24 -61 1 -24 24 -25 43 -4 65
25 25 67 15 79 -19z m-105 -9 c0 -12 7 -32 15 -43 17 -25 11 -34 -25 -34 -27
0 -50 16 -50 36 0 15 39 64 51 64 5 0 9 -10 9 -23z"/>
<path d="M1040 4419 c-110 -22 -243 -125 -303 -236 -86 -161 -35 -383 106
-455 55 -27 142 -22 169 12 42 52 5 116 -62 107 -48 -6 -76 12 -101 67 -25 55
-25 138 1 191 11 23 41 63 66 89 119 125 281 128 429 9 113 -92 166 -199 167
-339 0 -143 -59 -275 -186 -411 -85 -92 -165 -149 -280 -202 -123 -57 -241
-138 -330 -226 -294 -295 -363 -706 -180 -1083 76 -158 205 -272 401 -358 75
-32 76 -33 50 -43 -15 -6 -38 -22 -51 -36 l-24 -26 -204 65 c-195 63 -573 196
-650 230 -45 19 -58 20 -58 4 1 -17 88 -61 102 -52 6 4 8 3 5 -3 -9 -14 18
-24 40 -16 11 4 14 3 9 -5 -5 -8 3 -10 26 -7 26 4 29 3 13 -4 -11 -5 -15 -10
-10 -11 57 -9 72 -13 87 -26 15 -14 90 -43 128 -49 37 -6 70 -18 70 -26 0 -4
17 -11 37 -14 21 -4 59 -15 85 -26 26 -10 65 -19 86 -19 26 0 42 -5 45 -14 3
-8 47 -27 97 -43 77 -23 94 -32 110 -59 37 -58 131 -79 228 -49 19 6 22 4 22
-17 0 -68 138 -121 227 -87 24 9 30 7 46 -16 53 -72 185 -101 225 -50 l20 25
23 -34 c57 -83 166 -112 227 -61 l30 25 116 -22 c116 -23 152 -37 75 -30 -42
4 -119 -15 -119 -29 0 -10 37 -22 48 -15 13 8 132 15 148 9 19 -7 18 -21 -3
-26 -15 -4 -15 -6 4 -12 22 -7 22 -8 6 -36 -10 -16 -25 -29 -34 -29 -25 0
-382 83 -534 125 -71 19 -182 48 -245 65 -148 37 -602 171 -700 205 -41 14
-100 32 -130 40 -54 14 -301 101 -410 145 -56 22 -82 37 -45 27 11 -4 40 -9
63 -12 24 -3 81 -15 125 -26 45 -12 116 -25 157 -30 41 -4 96 -11 122 -14 28
-4 49 -2 53 4 3 6 -2 11 -12 11 -31 0 -193 30 -303 56 -58 14 -123 27 -144 30
-22 2 -44 8 -50 13 -6 4 -22 11 -36 14 -14 3 -49 14 -77 26 l-53 21 0 -35 c0
-33 4 -37 47 -56 164 -70 941 -335 1128 -384 50 -13 174 -46 276 -74 102 -28
246 -64 320 -81 73 -17 169 -40 212 -52 l78 -22 -3 -87 c-2 -51 1 -85 6 -81 5
3 6 -2 3 -12 -4 -10 2 -34 13 -57 20 -39 20 -40 1 -82 -26 -59 -168 -484 -176
-529 -4 -20 -4 -50 0 -67 l7 -31 103 0 c98 0 105 1 116 22 21 40 191 301 225
346 18 24 34 48 36 54 3 8 20 8 64 0 73 -15 384 -42 479 -42 39 0 94 6 122 13
l51 14 7 -31 c20 -101 63 -339 64 -363 1 -10 38 -13 150 -13 l149 0 6 58 c14
128 25 399 20 485 -4 82 -3 94 15 115 15 17 29 22 52 20 29 -3 33 -9 63 -84
38 -97 70 -151 128 -223 101 -124 231 -128 345 -9 39 40 113 146 147 208 l24
45 158 -6 c88 -4 239 -10 338 -14 146 -6 180 -5 187 6 5 8 9 17 9 20 0 3 -114
9 -252 13 -139 3 -288 11 -332 16 -43 5 -122 10 -175 11 l-98 2 -10 39 -10 38
61 0 c34 -1 95 -5 136 -10 41 -6 127 -14 190 -20 147 -13 166 -16 275 -39 114
-26 160 -26 75 -1 -163 48 -451 87 -790 106 -58 3 -111 11 -117 16 -7 6 -20 7
-29 4 -8 -3 -25 1 -37 9 -28 20 -39 19 -71 -6 -24 -19 -39 -21 -119 -19 -51 1
-114 5 -142 9 -48 6 -50 7 -62 49 l-12 44 42 -7 c23 -3 69 -10 102 -15 64 -10
249 -27 380 -35 44 -3 94 -9 110 -14 17 -5 84 -12 150 -15 66 -3 174 -10 240
-15 66 -5 207 -13 314 -16 155 -5 196 -4 202 7 16 25 9 28 -58 28 -38 0 -126
4 -198 9 -71 5 -190 13 -263 16 l-133 7 -20 41 c-12 22 -22 50 -24 61 -1 12
-20 64 -40 116 -76 194 -214 605 -353 1055 -38 123 -115 283 -170 351 -79 99
-230 177 -400 205 l-72 12 0 43 c0 42 1 43 62 76 116 62 224 184 266 300 14
41 21 48 43 48 21 0 37 12 68 51 53 67 56 114 10 153 -31 27 -63 34 -74 16 -3
-6 4 -10 18 -10 53 0 86 -70 55 -119 -12 -19 -12 -19 -36 0 -14 10 -31 19 -39
19 -21 0 -11 23 15 35 27 12 29 25 4 25 -38 0 -60 -48 -66 -140 -7 -115 -117
-267 -256 -351 -142 -86 -371 -95 -518 -20 -95 49 -221 180 -228 237 -3 30
-21 54 -41 54 -8 0 -12 4 -9 9 12 19 -35 45 -76 42 -30 -2 -20 -21 11 -21 39
0 56 -22 30 -38 -10 -7 -19 -19 -19 -28 0 -23 -30 -13 -53 18 -20 26 -20 30
-4 62 9 19 25 37 36 41 23 7 29 25 8 25 -36 0 -83 -75 -71 -113 5 -17 3 -19
-12 -12 -66 28 -213 9 -275 -36 -27 -19 -28 -19 -61 0 -48 28 -96 34 -150 18
-46 -15 -47 -14 -74 15 -41 42 -123 79 -200 88 -100 12 -107 7 -128 -90 -19
-87 -17 -127 11 -216 10 -32 13 -64 9 -86 l-6 -35 -78 3 c-84 3 -80 -1 11 -11
52 -6 57 -9 57 -31 0 -22 -4 -24 -52 -24 -29 0 -60 -5 -68 -10 -10 -6 7 -7 51
-3 65 6 66 5 71 -20 5 -24 2 -25 -49 -29 -30 -3 -59 -11 -66 -18 -10 -10 -8
-12 8 -6 11 4 41 10 66 13 46 5 46 5 68 -38 13 -24 43 -65 67 -90 40 -40 43
-47 30 -59 -9 -7 -16 -19 -16 -26 0 -9 -11 -14 -29 -14 -32 0 -61 -30 -61 -62
0 -9 -9 -20 -20 -23 -24 -8 -43 -41 -37 -64 2 -10 -2 -26 -9 -36 -8 -10 -14
-25 -14 -32 0 -10 -55 -86 -96 -132 -3 -3 -19 9 -37 26 -42 40 -69 53 -109 53
-45 0 -71 -20 -99 -77 -20 -42 -23 -63 -24 -168 0 -66 4 -141 9 -167 10 -59 4
-60 -85 -16 -94 46 -222 178 -276 283 -91 178 -125 378 -90 541 54 251 258
520 477 629 147 73 308 208 396 332 155 217 186 469 81 667 -47 90 -165 204
-257 249 -108 53 -189 66 -290 46z m2630 -1204 c15 -19 4 -52 -21 -60 -11 -4
-26 -1 -34 5 -15 13 -20 51 -8 63 12 12 50 7 63 -8z m-1105 -169 c0 -36 -27
-56 -52 -40 -40 25 -20 77 26 72 21 -2 26 -8 26 -32z m-86 -37 c23 -14 45 -19
65 -16 28 4 35 0 69 -49 68 -96 196 -180 313 -204 53 -11 64 -23 64 -76 0 -19
-12 -23 -112 -43 -62 -12 -183 -42 -268 -68 l-155 -45 -67 21 c-60 20 -68 25
-64 44 3 12 7 48 10 79 4 40 18 79 47 133 37 67 42 86 47 160 2 47 8 85 11 85
3 0 21 -10 40 -21z m-658 -160 c24 -26 29 -40 29 -81 0 -50 -22 -108 -41 -108
-5 0 -41 7 -80 16 l-69 16 0 44 c0 52 19 94 56 123 38 30 71 27 105 -10z m329
-69 c42 -42 46 -111 12 -171 l-14 -26 -74 15 c-64 13 -75 18 -80 38 -26 101
92 208 156 144z m1200 -154 c226 -44 356 -143 449 -341 32 -67 92 -244 202
-595 71 -228 177 -521 196 -543 9 -9 13 -20 10 -24 -4 -3 0 -17 8 -30 9 -13
13 -23 9 -23 -3 0 4 -15 15 -34 34 -55 25 -57 -45 -10 -87 59 -157 79 -264 78
-79 -2 -106 -8 -201 -48 -14 -6 -17 11 -22 151 -5 124 -12 186 -36 288 -38
167 -50 202 -127 366 -35 75 -64 143 -64 150 0 9 -3 10 -11 2 -16 -16 7 -114
49 -203 60 -129 104 -267 127 -399 3 -19 8 -38 11 -43 9 -14 25 -280 18 -301
-5 -15 -11 -8 -30 32 -48 105 -162 186 -359 255 -235 82 -487 118 -675 96 -95
-11 -190 -34 -222 -54 -36 -22 -29 6 21 79 28 42 51 80 51 84 0 5 4 11 9 13 4
2 25 37 45 78 21 41 51 100 68 130 16 30 48 96 69 145 22 50 43 97 49 107 12
21 -11 42 -37 34 -10 -3 -83 -42 -163 -87 -179 -100 -349 -189 -361 -189 -5 0
-9 6 -9 14 0 44 -96 71 -150 43 l-25 -13 2 160 c1 149 4 166 28 226 15 36 31
70 36 76 12 15 186 100 222 110 22 5 36 1 59 -16 39 -29 61 -12 23 18 l-27 21
27 7 c15 4 31 2 38 -5 16 -16 27 -14 27 7 0 21 155 72 406 132 l170 41 65 -31
c84 -40 154 -41 198 -5 16 14 33 35 36 45 4 11 7 20 8 20 1 0 36 -7 77 -14z
m-971 -107 c41 -14 39 -25 -4 -33 -42 -8 -75 0 -75 18 0 28 26 33 79 15z m-74
-49 c3 -5 2 -10 -4 -10 -5 0 -17 -3 -25 -6 -12 -5 -15 -2 -10 10 7 18 29 21
39 6z m-615 -70 c27 -14 70 -91 70 -124 0 -53 -68 -45 -107 13 -28 41 -30 96
-5 110 21 13 20 13 42 1z m-71 -89 c11 -21 34 -50 52 -65 37 -32 33 -56 -11
-56 -22 0 -41 11 -70 40 -44 44 -59 82 -40 105 22 26 48 17 69 -24z m-53 -81
c19 -21 44 -42 55 -45 14 -5 19 -14 17 -28 -7 -50 -111 -18 -143 43 -18 36
-18 35 1 54 22 23 30 20 70 -24z m-50 -80 c19 -16 46 -33 60 -36 27 -7 28 -27
0 -32 -25 -5 -104 37 -111 59 -6 18 0 39 12 39 3 0 21 -13 39 -30z m1134 -133
c0 -2 -21 -50 -48 -108 -113 -249 -225 -432 -356 -589 -59 -69 -111 -137 -123
-159 -1 -2 -35 4 -76 13 -67 15 -76 20 -82 43 -7 30 -35 74 -73 115 l-26 28
25 27 c13 16 58 64 100 108 72 78 139 186 139 226 0 14 26 32 93 65 113 57
353 190 387 215 23 17 40 24 40 16z m-344 -948 c3 -6 2 -15 -3 -20 -5 -5 -14
0 -21 11 -10 17 -10 20 2 20 8 0 18 -5 22 -11z m1762 -90 c67 -45 79 -49 132
-49 49 0 61 -4 74 -22 22 -31 2 -59 -54 -77 -33 -11 -50 -11 -81 -2 -21 7 -39
16 -39 21 0 6 -26 10 -57 10 -55 1 -57 1 -33 15 24 14 23 14 -22 8 -40 -5 -48
-3 -60 16 -7 11 -16 21 -20 21 -10 0 3 -33 16 -42 11 -7 -138 -1 -160 7 -16 5
-5 51 16 70 10 9 37 21 59 26 22 5 57 20 77 34 45 31 56 28 152 -36z m-1149
-23 l54 -11 23 -64 23 -63 -82 8 c-45 4 -93 8 -107 10 -14 2 -49 6 -77 10 -29
4 -53 8 -53 9 0 2 28 30 63 64 48 46 67 59 82 54 11 -3 44 -11 74 -17z m937
-203 c13 -71 -48 -150 -101 -129 -34 13 -2 126 46 160 30 20 47 10 55 -31z
m75 -4 c14 -26 6 -97 -16 -139 -18 -36 -58 -41 -75 -10 -8 15 -6 27 10 52 11
18 22 52 26 75 5 33 11 43 25 43 10 0 23 -10 30 -21z m-276 0 c84 -3 88 -5 74
-31 -10 -19 -17 -20 -80 -15 -61 5 -99 14 -159 35 -17 6 56 21 80 16 8 -2 47
-4 85 -5z m364 -36 c27 -76 -18 -162 -66 -128 -19 13 -20 17 -6 67 7 29 11 63
8 75 -5 22 8 33 35 30 8 -1 21 -21 29 -44z m60 -9 c16 -46 9 -89 -15 -98 -9
-4 -18 -5 -19 -4 -2 2 -5 36 -7 76 -3 61 -1 72 12 70 8 -2 21 -21 29 -44z"/>
<path d="M1765 2826 c-22 -34 -17 -129 7 -134 11 -2 25 9 38 30 24 39 25 58 5
58 -17 0 -20 25 -5 35 6 3 10 13 10 21 0 23 -38 16 -55 -10z"/>
<path d="M2105 2760 c-22 -24 -33 -114 -16 -134 17 -20 39 -10 56 25 19 36 19
59 0 59 -20 0 -19 29 0 36 12 5 13 10 4 20 -15 19 -23 18 -44 -6z"/>
<path d="M3290 3574 c0 -3 13 -16 29 -30 16 -13 43 -47 61 -74 41 -63 51 -65
15 -2 -39 66 -105 134 -105 106z"/>
<path d="M2778 3512 c-17 -19 -58 -97 -58 -109 0 -4 14 15 30 44 16 29 37 56
46 61 10 5 12 12 7 15 -6 4 -17 -1 -25 -11z"/>
<path d="M3233 3523 c-38 -7 -91 -76 -98 -128 -8 -52 9 -128 33 -147 13 -11
14 -10 8 12 -25 83 -28 106 -16 149 16 60 49 91 98 91 84 0 149 -105 123 -198
-8 -25 -7 -32 5 -32 8 0 14 9 14 19 0 10 7 21 15 25 16 6 16 27 0 38 -5 4 0 6
12 5 17 -1 19 -4 11 -14 -13 -16 4 -17 20 -1 14 14 16 32 3 23 -5 -3 -12 -1
-15 4 -3 5 -14 7 -25 4 -14 -4 -20 3 -25 28 -7 35 -47 94 -74 107 -25 13 -64
19 -89 15z"/>
<path d="M3146 3504 c-10 -25 1 -29 14 -5 6 12 7 21 1 21 -5 0 -12 -7 -15 -16z"/>
<path d="M2950 3456 c18 -25 35 -46 38 -46 9 0 -47 85 -58 88 -7 3 2 -16 20
-42z"/>
<path d="M2801 3457 c-38 -19 -63 -61 -76 -124 -6 -31 -17 -59 -25 -61 -8 -3
-10 0 -5 8 5 9 4 11 -4 6 -6 -4 -8 -12 -5 -18 5 -8 1 -9 -11 -4 -15 5 -16 4
-6 -8 7 -8 25 -18 41 -21 16 -4 32 -15 35 -26 4 -10 13 -19 21 -19 13 0 13 4
0 28 -15 28 -19 60 -17 126 1 53 54 106 104 106 76 0 136 -98 121 -198 -5 -40
-4 -45 7 -34 9 8 14 34 13 70 -1 129 -101 217 -193 169z"/>
<path d="M3126 3455 c-9 -26 -7 -32 5 -12 6 10 9 21 6 23 -2 3 -7 -2 -11 -11z"/>
<path d="M3218 3389 c4 -30 3 -32 -22 -27 -20 4 -26 1 -26 -13 0 -47 71 -76
104 -43 36 36 9 114 -41 114 -16 0 -19 -5 -15 -31z"/>
<path d="M2809 3363 c-1 -5 -2 -19 -3 -33 -1 -20 -6 -24 -24 -22 -20 2 -22 -1
-17 -20 8 -26 41 -58 60 -58 28 0 58 37 58 70 0 22 -7 39 -22 52 -24 18 -50
24 -52 11z"/>
<path d="M3098 3180 c25 -11 26 -13 11 -43 -11 -21 -11 -21 7 -4 15 13 16 21
8 35 -6 9 -20 18 -30 19 -15 2 -14 1 4 -7z"/>
<path d="M3299 3074 c-61 -54 -98 -71 -171 -80 -62 -7 -162 15 -215 47 -18 11
-38 19 -44 17 -7 -2 24 -22 67 -43 57 -29 83 -48 94 -70 14 -28 20 -30 73 -33
65 -3 108 15 106 46 0 13 -2 14 -6 2 -10 -29 -37 -40 -95 -40 -46 0 -59 4 -68
19 -15 30 -14 31 38 29 64 -2 130 11 155 31 39 30 132 121 125 121 -4 0 -31
-21 -59 -46z"/>
<path d="M1080 1282 c0 -15 16 -24 65 -41 36 -11 73 -21 83 -21 10 0 22 -4 28
-9 14 -13 64 -23 64 -12 0 14 -22 28 -70 44 -25 9 -61 22 -80 30 -66 27 -90
30 -90 9z"/>
<path d="M1842 78 c-48 -46 -69 -78 -52 -78 5 0 10 4 10 9 0 5 21 32 46 60 56
62 54 66 -4 9z"/>
</g>
</svg>
