<?xml version="1.0" standalone="no"?>
<!DOCTYPE svg PUBLIC "-//W3C//DTD SVG 20010904//EN"
 "http://www.w3.org/TR/2001/REC-SVG-20010904/DTD/svg10.dtd">
<svg version="1.0" xmlns="http://www.w3.org/2000/svg"
 width="16.000000pt" height="16.000000pt" viewBox="0 0 16.000000 16.000000"
 preserveAspectRatio="xMidYMid meet">
<metadata>
Created by potrace 1.11, written by Peter Selinger 2001-2013
</metadata>
<g transform="translate(0.000000,16.000000) scale(0.006154,-0.006154)"
fill="#000000" stroke="none">
<path d="M1396 2566 c-58 -139 -106 -283 -116 -351 -15 -97 -24 -115 -54 -115
-54 0 -158 -97 -196 -183 -35 -80 -37 -178 -5 -211 22 -22 64 -7 93 33 36 48
61 79 95 114 15 16 27 32 27 37 0 4 7 13 15 20 15 13 19 4 18 -37 -1 -12 36
-9 60 4 14 8 7 54 -10 61 -35 13 38 17 188 10 137 -6 151 -9 186 -32 21 -14
43 -26 50 -26 7 0 29 -9 50 -20 121 -62 349 -94 405 -57 38 26 58 76 58 144 0
152 -130 256 -340 271 l-85 6 -49 53 c-62 67 -85 131 -86 236 l0 77 -145 0
-145 0 -14 -34z m-100 -625 c-3 -5 1 -11 9 -15 21 -8 19 -38 -2 -34 -19 3 -30
58 -12 58 6 0 8 -4 5 -9z"/>
<path d="M492 2274 c-56 -28 -92 -67 -117 -127 -26 -64 -14 -132 34 -185 24
-26 38 -32 69 -32 73 0 84 61 13 68 -27 3 -35 10 -48 39 -21 52 -10 94 38 142
72 72 155 66 240 -19 140 -140 59 -349 -185 -477 -105 -55 -216 -158 -255
-236 -74 -153 -66 -343 21 -480 35 -55 71 -85 158 -131 l61 -33 -26 -17 c-24
-16 -30 -16 -78 -2 -49 14 -362 124 -400 141 -9 4 -17 3 -17 -1 0 -5 21 -17
48 -28 26 -10 65 -26 87 -36 22 -9 51 -21 65 -24 14 -4 34 -11 45 -15 11 -5
40 -14 65 -21 25 -7 64 -21 87 -31 24 -11 49 -19 57 -19 8 0 21 -8 28 -18 20
-29 58 -45 90 -38 24 5 34 0 53 -22 16 -19 20 -29 12 -35 -7 -5 1 -6 18 -3 70
12 92 10 119 -12 30 -23 90 -30 101 -12 4 7 16 1 30 -14 32 -35 72 -43 107
-23 18 10 39 14 58 10 33 -6 51 -23 26 -23 -9 0 -16 -4 -16 -9 0 -4 23 -6 50
-3 45 4 50 3 47 -14 -5 -35 -18 -46 -46 -39 -14 4 -53 13 -86 20 -175 38 -591
156 -785 223 -153 53 -174 61 -166 69 6 6 -67 43 -85 43 -5 0 -9 -7 -9 -15 0
-17 5 -19 165 -77 283 -103 341 -120 645 -199 281 -72 260 -62 260 -114 0 -24
5 -55 11 -69 10 -21 5 -46 -36 -163 -37 -109 -55 -146 -83 -175 -20 -21 -33
-38 -29 -38 5 0 19 12 32 28 l24 27 1 -27 c0 -27 1 -28 58 -28 l57 1 70 109
c52 81 75 110 90 110 11 -1 73 -7 138 -14 76 -9 134 -10 164 -5 25 5 48 7 50
5 4 -4 21 -99 30 -164 l6 -42 77 0 c94 0 90 -9 90 182 0 75 3 143 6 152 3 9
16 16 29 16 17 0 26 -10 40 -48 22 -58 79 -136 112 -151 60 -28 118 6 178 104
l40 65 110 -5 c61 -3 145 -8 188 -11 51 -4 77 -2 77 5 0 6 -3 11 -7 11 -5 1
-37 3 -73 5 -36 2 -136 7 -222 10 l-157 7 -6 29 c-4 16 -10 29 -13 30 -4 0
-29 2 -56 4 -27 3 -54 9 -60 16 -8 8 2 10 39 6 62 -7 304 -24 448 -32 62 -3
107 -2 107 3 0 6 -48 12 -107 16 -60 4 -138 9 -175 12 l-67 6 -21 61 c-22 67
-36 94 -44 86 -3 -3 2 -18 10 -34 14 -27 14 -28 -3 -14 -59 49 -160 59 -244
25 -13 -6 -15 -1 -11 25 5 35 -27 249 -40 263 -4 6 -8 17 -8 25 0 9 -14 43
-30 76 -16 33 -30 65 -30 71 0 6 -6 17 -14 23 -29 24 -26 -10 8 -96 57 -143
66 -178 75 -275 5 -51 8 -95 6 -96 -2 -2 -9 6 -15 18 -26 48 -67 76 -165 113
-134 50 -340 71 -433 43 l-52 -15 34 53 c35 55 120 225 131 263 10 36 -12 36
-83 -3 -194 -106 -200 -109 -222 -89 -12 11 -29 16 -44 13 -24 -5 -25 -3 -28
58 -3 63 8 125 27 154 6 8 31 26 56 39 36 19 54 22 84 17 32 -6 37 -5 31 9 -3
9 -2 13 4 10 6 -4 17 0 25 8 16 16 73 35 207 68 81 19 88 20 111 4 38 -24 109
-17 122 13 6 13 16 20 24 17 7 -3 34 -11 60 -17 56 -14 109 -46 143 -87 48
-56 70 -113 158 -396 17 -55 35 -109 40 -120 4 -11 19 -50 32 -87 12 -38 26
-68 30 -68 11 0 14 -12 -57 201 -36 107 -74 227 -85 267 -54 196 -149 298
-294 318 -25 4 -46 10 -46 15 0 4 -3 14 -6 23 -4 10 6 21 33 35 48 25 105 84
132 139 12 23 27 42 34 42 16 0 57 53 57 74 0 20 -28 46 -48 45 -13 0 -12 -2
4 -9 12 -5 25 -13 29 -19 10 -17 -5 -53 -20 -47 -9 3 -11 -2 -8 -15 4 -14 0
-19 -15 -19 -14 0 -27 -16 -47 -55 -76 -157 -277 -205 -422 -102 -24 17 -52
49 -63 71 -30 60 -45 76 -70 76 -19 0 -20 2 -10 15 7 8 8 15 3 15 -15 0 -33
-23 -33 -41 0 -14 -7 -16 -39 -12 -26 4 -53 -1 -86 -16 -36 -16 -51 -18 -61
-10 -8 7 -33 9 -59 7 -33 -4 -48 -1 -57 10 -19 23 -73 42 -117 42 -36 0 -41
-3 -48 -27 -9 -36 -8 -86 2 -145 7 -46 7 -48 -16 -49 -18 -1 -19 -3 -6 -6 10
-3 16 -10 14 -16 -7 -18 21 -79 49 -108 25 -26 25 -59 -1 -59 -18 0 -61 -59
-69 -95 -4 -17 -18 -43 -32 -58 l-24 -28 -26 20 c-39 31 -71 27 -95 -11 -17
-28 -20 -46 -17 -121 4 -84 3 -87 -16 -81 -53 16 -137 98 -172 166 -80 158
-60 322 58 476 43 55 97 99 190 151 80 45 162 130 200 210 28 57 33 76 33 146
0 96 -25 154 -93 216 -88 82 -177 99 -270 53z m833 -676 c20 -19 20 -19 0 -34
-13 -10 -15 -14 -5 -12 9 2 33 -17 55 -41 38 -42 122 -91 157 -91 14 0 36 -36
26 -44 -12 -11 -291 -75 -300 -70 -7 4 -8 2 -4 -4 5 -8 -2 -12 -21 -12 -16 0
-35 -6 -42 -12 -11 -10 -10 -8 0 10 8 12 23 23 34 23 16 1 17 2 3 6 -15 4 -16
12 -11 51 3 26 14 61 23 77 10 17 21 52 25 78 6 35 11 47 21 43 9 -4 14 2 14
17 0 16 -3 18 -9 8 -11 -17 -31 -6 -31 19 0 23 34 16 65 -12z m-397 -119 c-23
-13 -25 -79 -3 -79 7 0 19 8 24 18 9 15 10 15 11 -5 0 -29 -9 -33 -54 -26 -46
7 -54 24 -33 69 13 27 23 34 44 34 24 -1 25 -2 11 -11z m32 -24 c0 -8 -4 -15
-10 -15 -5 0 -10 7 -10 15 0 8 5 15 10 15 6 0 10 -7 10 -15z m150 -12 c-20 -8
-30 -24 -30 -50 0 -28 17 -38 37 -22 13 12 15 11 11 -6 -3 -15 -11 -19 -33
-18 -45 3 -55 10 -55 38 0 44 17 65 53 64 18 0 25 -3 17 -6z m20 -28 c0 -8 -4
-15 -10 -15 -5 0 -10 7 -10 15 0 8 5 15 10 15 6 0 10 -7 10 -15z m-226 -204
c13 -22 15 -36 8 -43 -25 -25 -77 40 -57 72 11 17 28 7 49 -29z m-50 -25 c30
-40 32 -46 11 -46 -24 0 -66 46 -59 64 9 24 19 20 48 -18z m-6 -77 c-14 -9
-63 15 -71 34 -3 8 0 20 6 26 8 8 20 3 44 -21 23 -22 29 -34 21 -39z m-30 -9
c7 0 12 -4 12 -10 0 -5 -6 -10 -13 -10 -20 0 -58 30 -51 41 4 6 13 4 23 -5 10
-9 23 -16 29 -16z m518 -151 c-49 -104 -112 -206 -160 -259 -17 -19 -40 -48
-51 -63 -19 -25 -25 -28 -57 -22 -26 5 -39 15 -51 38 -10 18 -22 39 -29 49
-10 14 -3 26 45 77 33 36 61 78 68 101 9 29 20 42 43 51 17 7 76 39 131 70 55
32 101 56 103 54 2 -1 -17 -45 -42 -96z m784 -444 c20 -15 47 -25 66 -25 39 0
52 -16 31 -37 -12 -12 -27 -14 -71 -9 -31 4 -56 12 -56 18 0 5 -6 8 -12 5 -7
-2 -21 2 -30 11 -16 14 -18 13 -18 -1 0 -17 -25 -22 -54 -11 -29 11 -17 34 27
54 57 25 77 24 117 -5z m-573 -19 c2 -2 8 -17 13 -35 8 -30 7 -31 -20 -31 -16
0 -51 5 -79 12 l-51 12 27 29 c25 25 33 28 68 22 21 -3 41 -7 42 -9z m427 -56
c17 -16 -37 -32 -96 -28 -55 4 -77 16 -78 41 0 10 162 -2 174 -13z m34 -43 c5
-23 -24 -67 -43 -67 -18 0 -19 29 -3 65 13 29 41 30 46 2z m37 2 c11 -17 -5
-80 -21 -86 -24 -9 -27 3 -13 52 13 45 22 54 34 34z m-105 -15 c0 -14 -8 -16
-52 -11 -78 10 -85 27 -10 27 51 0 62 -3 62 -16z m148 -27 c2 -27 -1 -39 -13
-43 -23 -9 -26 -2 -19 45 8 51 28 49 32 -2z m32 23 c11 -21 5 -60 -9 -60 -5 0
-8 18 -8 40 0 46 2 48 17 20z"/>
<path d="M1725 1840 c18 -20 18 -20 -14 -14 -22 5 -37 2 -50 -10 -10 -9 -20
-14 -22 -12 -2 2 -5 -17 -7 -42 -2 -32 3 -54 13 -67 16 -20 16 -20 10 1 -5 18
-2 20 23 16 34 -5 48 18 32 49 -12 21 -43 26 -38 7 2 -7 -1 -14 -6 -15 -5 -1
-13 -7 -17 -15 -15 -22 -11 8 5 47 11 27 21 35 40 35 33 0 66 -43 66 -86 0
-33 1 -33 20 -17 23 20 26 33 6 33 -12 0 -23 22 -32 68 -3 18 -24 42 -37 42
-5 0 -2 -9 8 -20z"/>
<path d="M1439 1813 c-13 -16 -12 -17 4 -4 9 7 17 15 17 17 0 8 -8 3 -21 -13z"/>
<path d="M1526 1808 c5 -14 0 -16 -34 -11 -33 4 -42 2 -56 -18 -9 -13 -16 -32
-16 -43 0 -10 -7 -24 -16 -31 -14 -10 -13 -13 10 -28 19 -13 26 -14 26 -4 0 7
11 13 28 12 23 0 27 4 27 30 0 20 -5 31 -17 33 -11 2 -18 -3 -18 -11 0 -8 -7
-17 -15 -21 -20 -7 -20 23 1 52 34 48 92 15 105 -61 7 -39 7 -38 6 15 -1 38
-8 66 -20 80 -10 14 -15 16 -11 6z"/>
<path d="M1884 1712 c-6 -4 -14 -20 -18 -37 -7 -29 -7 -29 8 -10 8 11 16 25
16 32 0 6 6 14 13 16 6 3 8 6 2 6 -5 0 -15 -3 -21 -7z"/>
<path d="M1616 1633 c-6 -14 -5 -15 5 -6 7 7 10 15 7 18 -3 3 -9 -2 -12 -12z"/>
<path d="M1720 1602 c0 -4 -13 -15 -29 -25 -37 -22 -122 -22 -163 -1 -16 9
-27 11 -23 5 10 -17 73 -41 107 -41 16 0 43 6 61 14 34 14 78 56 59 56 -7 0
-12 -4 -12 -8z"/>
<path d="M110 810 c0 -8 80 -23 86 -17 2 2 -16 8 -41 14 -25 6 -45 7 -45 3z"/>
<path d="M225 780 c11 -5 34 -9 50 -9 26 0 27 2 10 9 -11 5 -33 9 -50 9 -26 0
-27 -2 -10 -9z"/>
<path d="M570 659 c0 -5 6 -9 14 -9 8 0 22 -3 32 -7 11 -4 15 -3 11 4 -8 13
-57 23 -57 12z"/>
<path d="M2173 383 c15 -2 39 -2 55 0 15 2 2 4 -28 4 -30 0 -43 -2 -27 -4z"/>
<path d="M2281 376 c2 -2 36 -6 74 -9 43 -3 60 -2 45 3 -24 8 -127 14 -119 6z"/>
<path d="M2448 353 c6 -2 18 -2 25 0 6 3 1 5 -13 5 -14 0 -19 -2 -12 -5z"/>
</g>
</svg>
