<?xml version="1.0" standalone="no"?>
<!DOCTYPE svg PUBLIC "-//W3C//DTD SVG 20010904//EN"
 "http://www.w3.org/TR/2001/REC-SVG-20010904/DTD/svg10.dtd">
<svg version="1.0" xmlns="http://www.w3.org/2000/svg"
 width="16.000000pt" height="16.000000pt" viewBox="0 0 16.000000 16.000000"
 preserveAspectRatio="xMidYMid meet">
<metadata>
Created by potrace 1.11, written by Peter Selinger 2001-2013
</metadata>
<g transform="translate(0.000000,16.000000) scale(0.006154,-0.006154)"
fill="#000000" stroke="none">
<path d="M1350 2508 c-101 -50 -125 -82 -190 -253 -32 -83 -63 -183 -70 -222
-12 -66 -15 -71 -41 -77 -37 -7 -105 -70 -131 -119 -20 -40 -28 -132 -14 -156
18 -28 53 -10 100 49 26 33 52 60 57 60 5 0 8 3 7 8 -2 4 2 7 7 7 6 0 9 -6 9
-12 -2 -17 8 -16 31 1 12 9 16 20 12 36 l-6 23 117 -6 c105 -4 123 -8 177 -35
124 -63 290 -91 341 -57 46 30 49 124 8 194 -27 46 -124 92 -208 98 -62 5 -68
8 -105 48 -44 48 -61 96 -60 170 1 114 39 150 105 100 l34 -26 0 38 c0 88 -43
163 -93 163 -13 0 -52 -14 -87 -32z m-230 -686 c0 -13 -12 -22 -22 -16 -10 6
-1 24 13 24 5 0 9 -4 9 -8z"/>
<path d="M534 2086 c-17 -8 -45 -31 -62 -52 -27 -33 -32 -47 -32 -92 0 -46 4
-58 29 -83 30 -29 46 -34 75 -23 27 10 20 44 -9 44 -43 0 -60 67 -29 116 39
59 108 67 169 19 67 -51 81 -128 39 -213 -31 -62 -74 -102 -155 -143 -81 -41
-139 -96 -180 -171 -31 -58 -34 -70 -34 -153 0 -73 4 -99 23 -140 28 -61 73
-110 127 -137 51 -26 50 -25 36 -42 -11 -13 -33 -8 -164 38 -84 29 -199 72
-256 95 -57 22 -106 41 -110 40 -8 0 131 -68 142 -69 5 0 32 -11 60 -24 29
-13 70 -29 92 -35 22 -7 49 -16 60 -21 11 -5 48 -18 83 -29 34 -11 74 -29 89
-40 14 -12 40 -21 58 -21 18 0 35 -6 38 -13 8 -20 -78 -12 -168 16 -121 38
-201 70 -187 75 13 4 -186 74 -243 85 -53 11 93 -52 280 -120 156 -57 414
-133 582 -172 l51 -13 6 -46 c3 -26 6 -54 7 -62 3 -29 -62 -190 -86 -214 -13
-13 -29 -42 -34 -64 -7 -23 -24 -51 -41 -66 -43 -35 -53 -69 -35 -111 14 -36
53 -62 78 -52 16 6 56 80 101 187 39 92 134 242 148 234 6 -4 65 -9 131 -13
l121 -6 18 -90 c9 -49 18 -126 19 -170 1 -44 4 -66 6 -49 3 26 8 30 28 27 17
-4 28 2 40 20 22 34 26 59 33 227 6 121 10 145 23 148 11 2 21 -11 33 -42 24
-63 66 -106 104 -106 37 0 81 35 107 85 l20 37 192 -7 192 -7 7 26 c12 51 9
52 -183 60 -98 4 -181 10 -184 14 -8 9 -108 296 -150 430 -43 138 -75 186
-142 217 -28 14 -62 25 -75 25 -30 0 -42 30 -16 44 29 17 104 95 104 109 0 7
14 23 30 35 31 24 38 50 18 70 -15 15 -32 16 -23 2 3 -6 -1 -13 -9 -16 -10 -4
-16 -18 -16 -37 0 -46 -44 -113 -96 -143 -39 -23 -53 -26 -113 -22 -79 4 -130
35 -159 96 -10 22 -27 39 -42 43 -14 4 -19 7 -12 8 6 1 12 7 12 14 0 6 -11 0
-25 -15 -14 -16 -30 -25 -38 -22 -8 3 -31 -2 -52 -10 -20 -9 -42 -13 -48 -9
-5 3 -23 6 -39 5 -16 0 -44 8 -61 19 -18 10 -46 19 -64 19 -38 0 -46 -23 -39
-117 5 -59 4 -63 -17 -64 -21 -1 -20 -2 3 -9 14 -4 22 -8 17 -9 -4 -1 4 -19
19 -40 l26 -39 -31 -30 c-17 -16 -31 -36 -31 -44 0 -9 -9 -27 -21 -42 -20 -26
-21 -26 -51 -9 -29 18 -30 18 -49 -6 -14 -17 -19 -39 -19 -87 0 -80 -11 -82
-79 -17 -151 148 -105 383 97 502 126 74 191 166 192 269 0 139 -140 248 -256
198z m1026 -409 c0 -19 -10 -27 -26 -20 -10 4 -11 8 -1 19 15 17 27 18 27 1z
m-20 -37 c0 -5 -4 -10 -10 -10 -5 0 -10 5 -10 10 0 6 5 10 10 10 6 0 10 -4 10
-10z m-426 -36 c9 -3 16 -13 16 -21 0 -8 -6 -13 -12 -10 -7 2 -12 9 -11 15 2
6 -4 9 -12 6 -8 -4 -15 -1 -15 5 0 12 11 14 34 5z m56 -81 c19 -18 53 -39 75
-46 66 -23 51 -38 -70 -68 -60 -15 -119 -28 -130 -28 l-20 0 20 9 c11 5 14 9
8 9 -15 1 -7 52 13 93 8 15 14 41 14 57 0 29 1 30 28 19 15 -6 43 -26 62 -45z
m-340 -24 c-15 -27 -6 -50 17 -42 13 4 15 3 8 -5 -6 -6 -20 -9 -33 -6 -24 7
-30 42 -10 62 19 19 30 14 18 -9z m40 -10 c0 -5 -4 -9 -10 -9 -5 0 -10 7 -10
16 0 8 5 12 10 9 6 -3 10 -10 10 -16z m82 -29 c-3 -23 0 -30 12 -30 9 0 16 -5
16 -11 0 -6 -7 -8 -16 -5 -9 3 -22 6 -30 6 -17 0 -19 41 -2 58 19 19 25 14 20
-18z m38 -2 c0 -19 -2 -20 -10 -8 -13 19 -13 30 0 30 6 0 10 -10 10 -22z m505
-58 c64 -32 88 -79 170 -326 41 -125 75 -229 75 -231 0 -1 -16 5 -35 13 -40
16 -83 18 -119 4 -26 -9 -26 -9 -26 40 0 68 -24 166 -62 247 -38 82 -50 62
-14 -24 32 -76 56 -171 56 -219 l0 -39 -23 27 c-60 71 -287 127 -404 100 -40
-9 -57 -2 -33 13 20 12 110 209 101 218 -6 6 -48 -13 -107 -47 -80 -45 -100
-53 -107 -41 -4 8 -19 15 -32 15 -23 0 -25 4 -25 49 0 74 15 106 60 126 21 10
49 15 60 12 16 -4 20 -2 16 9 -3 9 -1 12 5 9 5 -4 16 -2 23 4 7 6 56 22 109
36 73 20 101 23 116 15 30 -16 81 -12 88 6 7 19 48 13 108 -16z m-665 -97 c0
-22 -30 -15 -39 10 -5 12 -6 26 -4 30 7 11 43 -23 43 -40z m-32 -32 c-16 -5
-51 35 -43 49 5 8 14 3 30 -16 13 -16 19 -31 13 -33z m-23 -1 c18 -19 17 -20
-1 -20 -20 0 -44 17 -44 32 0 15 27 8 45 -12z m-21 -25 c16 -12 17 -15 4 -15
-8 0 -21 7 -28 15 -16 19 -1 19 24 0z m406 -51 c0 -21 -98 -190 -141 -241 -61
-75 -86 -81 -118 -27 l-21 35 38 47 c21 26 43 57 48 70 5 14 44 43 94 72 86
49 100 55 100 44z m-370 -311 c18 4 32 1 40 -8 13 -16 65 -20 74 -7 3 5 19 7
36 4 22 -3 28 -8 21 -16 -8 -9 -1 -11 24 -8 28 3 33 1 31 -14 -2 -10 -8 -20
-15 -22 -12 -4 -335 75 -359 88 -9 4 -1 7 18 8 18 0 34 3 37 6 3 3 19 -4 35
-15 20 -15 38 -20 58 -16z m889 -60 c13 -9 37 -19 54 -22 36 -8 46 -27 18 -36
-24 -7 -103 12 -113 29 -6 8 -8 8 -8 -1 0 -7 -11 -13 -25 -13 -35 0 -31 23 8
42 42 20 39 20 66 1z m-391 -40 c3 -19 -1 -23 -25 -23 -15 0 -38 3 -50 6 -19
5 -21 9 -12 26 16 29 83 22 87 -9z m269 -13 c30 0 34 -2 23 -15 -16 -20 -84
-19 -104 1 -23 23 -20 27 15 20 17 -3 47 -6 66 -6z m198 -20 c103 -9 271 -18
358 -19 34 -1 38 -4 35 -23 -3 -21 -7 -22 -98 -20 -217 4 -339 14 -344 28 -4
10 5 14 32 15 34 2 33 2 -13 9 -95 15 -115 13 -115 -14 0 -25 -22 -51 -33 -39
-12 12 -7 33 13 53 23 23 21 23 165 10z m-115 -32 c0 -31 -15 -52 -30 -43 -8
5 -9 10 -1 18 6 6 11 19 11 29 0 10 5 18 10 18 6 0 10 -10 10 -22z m-92 5
c-10 -2 -28 -2 -40 0 -13 2 -5 4 17 4 22 1 32 -1 23 -4z m122 -17 c0 -14 -5
-28 -11 -31 -15 -10 -18 -4 -12 28 7 34 23 36 23 3z m21 -19 c-8 -8 -11 -3
-11 19 1 25 2 27 11 11 8 -14 8 -22 0 -30z m-778 -275 c10 -2 17 -8 17 -13 0
-18 -66 -153 -87 -178 -26 -31 -60 -21 -79 24 -17 42 -8 68 40 114 20 19 36
44 36 56 0 11 8 31 17 45 l17 24 11 -35 c7 -19 19 -35 28 -37z"/>
<path d="M1818 723 c12 -2 30 -2 40 0 9 3 -1 5 -23 4 -22 0 -30 -2 -17 -4z"/>
<path d="M1898 713 c7 -3 16 -2 19 1 4 3 -2 6 -13 5 -11 0 -14 -3 -6 -6z"/>
<path d="M1400 1783 c0 -6 6 -14 13 -17 6 -3 3 -5 -8 -4 -43 4 -65 -12 -65
-45 0 -18 5 -39 11 -47 9 -12 10 -12 5 4 -6 16 -4 17 9 6 22 -19 49 5 34 31
-12 22 -31 26 -23 4 4 -9 0 -15 -10 -15 -19 0 -20 5 -6 31 22 40 70 16 70 -35
0 -29 0 -29 21 -10 18 16 19 19 5 22 -9 2 -16 12 -16 22 0 19 -39 72 -40 53z"/>
<path d="M1200 1751 c-5 -11 -10 -31 -10 -45 0 -14 -4 -26 -10 -26 -18 0 -11
-19 12 -31 18 -10 20 -9 14 6 -5 15 -4 16 9 5 19 -16 39 -1 33 26 -4 22 -28
31 -28 10 0 -9 -4 -16 -10 -16 -11 0 -13 11 -4 34 7 19 47 21 62 4 6 -7 12
-26 15 -43 3 -21 4 -18 4 13 -1 23 -5 42 -10 42 -4 0 -6 4 -3 8 3 5 -10 7 -29
6 -26 -2 -33 0 -28 11 8 22 -5 18 -17 -4z"/>
<path d="M1326 1625 c4 -8 8 -15 10 -15 2 0 4 7 4 15 0 8 -4 15 -10 15 -5 0
-7 -7 -4 -15z"/>
<path d="M1391 1590 c-26 -22 -88 -27 -124 -9 -21 10 -21 10 -2 -5 11 -8 28
-23 37 -32 10 -10 21 -14 25 -11 3 4 1 7 -5 7 -27 0 -9 15 20 17 19 2 43 13
57 28 30 30 26 32 -8 5z"/>
<path d="M298 1023 c7 -3 16 -2 19 1 4 3 -2 6 -13 5 -11 0 -14 -3 -6 -6z"/>
<path d="M338 1013 c6 -2 18 -2 25 0 6 3 1 5 -13 5 -14 0 -19 -2 -12 -5z"/>
<path d="M1477 303 c-12 -11 -8 -62 8 -100 21 -51 19 -73 -12 -105 -30 -32
-54 -35 -77 -12 -9 8 -16 12 -16 7 0 -17 24 -33 48 -33 31 0 82 52 82 83 0 14
-7 42 -16 63 -9 20 -14 53 -12 71 4 36 4 36 -5 26z"/>
<path d="M1372 155 c0 -16 2 -22 5 -12 2 9 2 23 0 30 -3 6 -5 -1 -5 -18z"/>
</g>
</svg>
